<?xml version="1.0" encoding="UTF-8" standalone="no"?>
<svg
   xmlns:dc="http://purl.org/dc/elements/1.1/"
   xmlns:cc="http://creativecommons.org/ns#"
   xmlns:rdf="http://www.w3.org/1999/02/22-rdf-syntax-ns#"
   xmlns:svg="http://www.w3.org/2000/svg"
   xmlns="http://www.w3.org/2000/svg"
   xmlns:sodipodi="http://sodipodi.sourceforge.net/DTD/sodipodi-0.dtd"
   xmlns:inkscape="http://www.inkscape.org/namespaces/inkscape"
   width="85.0394pt"
   height="85.0394pt"
   viewBox="0 0 85.0394 85.0394"
   version="1.2"
   id="svg47"
   sodipodi:docname="LogosCurie_CMJN.ai.svg"
   inkscape:version="0.92.3 (2405546, 2018-03-11)">
  <metadata
     id="metadata53">
    <rdf:RDF>
      <cc:Work
         rdf:about="">
        <dc:format>image/svg+xml</dc:format>
        <dc:type
           rdf:resource="http://purl.org/dc/dcmitype/StillImage" />
        <dc:title></dc:title>
      </cc:Work>
    </rdf:RDF>
  </metadata>
  <defs
     id="defs51" />
  <sodipodi:namedview
     pagecolor="#ffffff"
     bordercolor="#666666"
     borderopacity="1"
     objecttolerance="10"
     gridtolerance="10"
     guidetolerance="10"
     inkscape:pageopacity="0"
     inkscape:pageshadow="2"
     inkscape:window-width="1920"
     inkscape:window-height="1021"
     id="namedview49"
     showgrid="false"
     inkscape:zoom="2.0813882"
     inkscape:cx="7.2067287"
     inkscape:cy="56.692932"
     inkscape:window-x="0"
     inkscape:window-y="0"
     inkscape:window-maximized="1"
     inkscape:current-layer="svg47" />
  <path
     inkscape:connector-curvature="0"
     id="path2"
     d="m 7.1875,68.636719 c 0,-6.371094 3.753906,-10.035157 10.265625,-10.035157 2.042969,0 3.816406,0.316407 5.273437,0.929688 0.492188,0.226562 0.605469,0.347656 0.605469,0.78125 v 2.480469 c 0,0.34375 -0.140625,0.550781 -0.378906,0.550781 -0.109375,0 -0.226563,-0.0625 -0.492187,-0.234375 -1.074219,-0.671875 -2.792969,-1.105469 -4.363282,-1.105469 -3.929687,0 -6.105468,2.351563 -6.105468,6.570313 0,4.101562 2.234374,6.515625 6.078124,6.515625 1.484376,0 2.816407,-0.378906 4.273438,-1.132813 0.292969,-0.144531 0.46875,-0.203125 0.582031,-0.203125 0.265625,0 0.40625,0.171875 0.40625,0.46875 v 2.441406 c 0,0.410157 -0.08984,0.550782 -0.488281,0.753907 -1.285156,0.699219 -3.234375,1.050781 -5.535156,1.050781 -6.601563,0 -10.121094,-3.433594 -10.121094,-9.832031"
     style="fill:#f37014;fill-opacity:1;fill-rule:nonzero;stroke:none" />
  <path
     inkscape:connector-curvature="0"
     id="path4"
     d="m 26.039062,73.289062 v -9.453124 c 0,-0.207032 0.171876,-0.378907 0.378907,-0.378907 h 3.601562 c 0.207031,0 0.382813,0.171875 0.382813,0.378907 v 8.34375 c 0,2.070312 0.902344,3.148437 2.617187,3.148437 1.546875,0 2.328125,-0.757813 2.328125,-2.210937 v -9.28125 c 0,-0.207032 0.175782,-0.378907 0.378906,-0.378907 h 3.609376 c 0.203124,0 0.375,0.171875 0.375,0.378907 v 14.015624 c 0,0.207032 -0.171876,0.378907 -0.375,0.378907 h -3.320313 c -0.203125,0 -0.375,-0.171875 -0.375,-0.378907 v -0.34375 h -0.117187 c -0.175782,0 -0.355469,0.05859 -0.582032,0.140626 -0.410156,0.179687 -0.640625,0.265624 -0.71875,0.292968 -0.90625,0.351563 -1.929687,0.527344 -2.945312,0.527344 -3.316406,0 -5.238282,-1.890625 -5.238282,-5.179688"
     style="fill:#f37014;fill-opacity:1;fill-rule:nonzero;stroke:none" />
  <path
     inkscape:connector-curvature="0"
     id="path6"
     d="m 44.359375,78.230469 c -0.199219,0 -0.375,-0.171875 -0.375,-0.378907 V 63.835938 c 0,-0.207032 0.175781,-0.378907 0.375,-0.378907 h 3.324219 c 0.203125,0 0.375,0.171875 0.375,0.378907 v 0.464843 h 0.08984 c 0.347656,0 0.460937,-0.03125 0.898437,-0.234375 0.90625,-0.378906 1.578125,-0.550781 2.386719,-0.582031 l 0.761718,-0.02734 h 0.171876 c 0.957031,0 1.222656,0.171875 1.222656,0.84375 v 2.179688 c 0,0.410156 -0.117188,0.613281 -0.410156,0.613281 l -0.320313,-0.05859 c -0.761719,-0.234375 -1.457031,-0.320312 -2.292969,-0.320312 -1.664062,0 -2.214844,0.523437 -2.214844,2.179687 v 8.957031 c 0,0.207032 -0.175781,0.378907 -0.378906,0.378907 z m 0,0"
     style="fill:#f37014;fill-opacity:1;fill-rule:nonzero;stroke:none" />
  <path
     inkscape:connector-curvature="0"
     id="path8"
     d="m 56.5,78.234375 c -0.207031,0 -0.382812,-0.175781 -0.382812,-0.382813 V 63.835938 c 0,-0.207032 0.175781,-0.378907 0.382812,-0.378907 h 3.601562 c 0.199219,0 0.378907,0.171875 0.378907,0.378907 v 14.015624 c 0,0.207032 -0.179688,0.382813 -0.378907,0.382813 z m 0,0"
     style="fill:#f37014;fill-opacity:1;fill-rule:nonzero;stroke:none" />
  <path
     inkscape:connector-curvature="0"
     id="path10"
     d="m 68.535156,66.714844 c -0.46875,0.523437 -0.605468,1.074218 -0.605468,2.300781 h 5.578124 v -0.183594 c 0,-1.128906 -0.164062,-1.625 -0.695312,-2.175781 -0.496094,-0.523438 -1.21875,-0.785156 -2.09375,-0.785156 -0.933594,0 -1.65625,0.292968 -2.183594,0.84375 m -2.90625,9.976562 c -1.339844,-1.277344 -2.035156,-3.230468 -2.035156,-5.726562 0,-5.035156 2.5625,-7.769532 7.332031,-7.769532 4.328125,0 6.925781,2.734376 6.925781,7.273438 v 0.84375 c 0,0.199219 -0.183593,0.378906 -0.386718,0.378906 h -9.507813 v 0.289063 c 0,2.300781 1.453125,3.578125 4.042969,3.578125 1.542969,0 2.90625,-0.378906 4.246094,-1.195313 0.171875,-0.113281 0.261718,-0.140625 0.378906,-0.140625 0.261719,0 0.347656,0.117188 0.347656,0.429688 v 2.011718 c 0,0.492188 -0.144531,0.726563 -0.640625,0.902344 -1.597656,0.636719 -3.289062,0.902344 -5.292969,0.902344 -2.5625,0 -4.132812,-0.496094 -5.410156,-1.777344"
     style="fill:#f37014;fill-opacity:1;fill-rule:nonzero;stroke:none" />
  <path
     inkscape:connector-curvature="0"
     id="path12"
     d="m 55.902344,59.667969 c 0,-1.320313 1.074218,-2.394531 2.398437,-2.394531 1.324219,0 2.394531,1.074218 2.394531,2.394531 0,1.324219 -1.070312,2.398437 -2.394531,2.398437 -1.324219,0 -2.398437,-1.074218 -2.398437,-2.398437"
     style="fill:#f37014;fill-opacity:1;fill-rule:nonzero;stroke:none" />
  <path
     inkscape:connector-curvature="0"
     id="path14"
     d="M 13.527344,53.484375 V 41.550781 c 0,-0.179687 0.15625,-0.332031 0.332031,-0.332031 h 0.636719 c 0.195312,0 0.304687,0.101562 0.304687,0.304688 v 0.179687 l 0.195313,0.152344 0.203125,-0.05078 0.277343,-0.128907 c 1.0625,-0.457031 2.046876,-0.65625 3.109376,-0.65625 1.441406,0 2.683593,0.402344 3.433593,1.136719 0.890625,0.859375 1.238281,1.949219 1.238281,3.945312 v 7.382813 c 0,0.171875 -0.144531,0.328125 -0.347656,0.328125 h -0.863281 c -0.179687,0 -0.324219,-0.15625 -0.324219,-0.328125 V 45.75 c 0,-2.484375 -1.089844,-3.671875 -3.394531,-3.671875 -1.964844,0 -3.261719,0.660156 -3.261719,1.671875 v 9.734375 c 0,0.171875 -0.152344,0.328125 -0.351562,0.328125 h -0.855469 c -0.175781,0 -0.332031,-0.15625 -0.332031,-0.328125"
     style="fill:#454a4f;fill-opacity:1;fill-rule:nonzero;stroke:none" />
  <path
     inkscape:connector-curvature="0"
     id="path16"
     d="m 29.867188,48.605469 -1.753907,-1.191407 c -1.589843,-1.035156 -2.070312,-1.746093 -2.070312,-3.058593 0,-2.074219 1.417969,-3.339844 3.691406,-3.339844 1.523437,0 2.984375,0.585937 2.984375,1.191406 v 0.457031 c 0,0.148438 -0.09375,0.277344 -0.226562,0.277344 -0.105469,0 -0.195313,-0.05078 -0.40625,-0.152344 L 31.90625,42.6875 c -0.808594,-0.40625 -1.539062,-0.609375 -2.21875,-0.609375 -1.414062,0 -2.355469,0.761719 -2.355469,1.972656 0,0.839844 0.230469,1.140625 1.449219,1.976563 l 2.148438,1.4375 c 1.589843,1.0625 2.042968,1.796875 2.042968,3.164062 0,2.042969 -1.542968,3.410156 -3.867187,3.410156 -0.933594,0 -2.175781,-0.300781 -2.859375,-0.65625 l -0.125,-0.07422 C 25.84375,53.15625 25.820312,53.105469 25.820312,52.824219 v -0.453125 c 0,-0.175782 0.07813,-0.277344 0.222657,-0.277344 0.101562,0 0.230469,0.04687 0.382812,0.128906 0.9375,0.527344 1.621094,0.726563 2.472657,0.726563 1.566406,0 2.53125,-0.808594 2.53125,-2.121094 0,-0.9375 -0.332032,-1.390625 -1.5625,-2.222656"
     style="fill:#454a4f;fill-opacity:1;fill-rule:nonzero;stroke:none" />
  <path
     inkscape:connector-curvature="0"
     id="path18"
     d="m 37.851562,42.28125 v 8.570312 c 0,1.367188 0.707032,2.097657 1.972657,2.097657 0.53125,0 1.089843,-0.125 1.644531,-0.375 l 0.253906,-0.07813 c 0.152344,0 0.226563,0.101562 0.226563,0.304687 v 0.332031 c 0,0.554688 -0.984375,0.882813 -2.480469,0.882813 -1.996094,0 -3.15625,-1.164063 -3.15625,-3.1875 v -8.54687 h -1.472656 c -0.175782,0 -0.320313,-0.148438 -0.320313,-0.332031 v -0.398438 c 0,-0.179687 0.144531,-0.332031 0.320313,-0.332031 H 36.3125 v -3.285156 c 0,-0.175782 0.144531,-0.328125 0.328125,-0.328125 h 0.875 c 0.191406,0 0.335937,0.152343 0.335937,0.328125 v 3.285156 h 3.769532 c 0.171875,0 0.328125,0.152344 0.328125,0.332031 v 0.398438 c 0,0.183593 -0.15625,0.332031 -0.328125,0.332031 z m 0,0"
     style="fill:#454a4f;fill-opacity:1;fill-rule:nonzero;stroke:none" />
  <path
     inkscape:connector-curvature="0"
     id="path20"
     d="M 44.246094,53.484375 V 41.550781 c 0,-0.179687 0.15625,-0.332031 0.332031,-0.332031 h 0.863281 c 0.195313,0 0.351563,0.152344 0.351563,0.332031 v 11.933594 c 0,0.171875 -0.15625,0.328125 -0.351563,0.328125 h -0.863281 c -0.175781,0 -0.332031,-0.15625 -0.332031,-0.328125"
     style="fill:#454a4f;fill-opacity:1;fill-rule:nonzero;stroke:none" />
  <path
     inkscape:connector-curvature="0"
     id="path22"
     d="M 8.46875,53.484375 V 41.550781 c 0,-0.179687 0.164062,-0.332031 0.332031,-0.332031 h 0.867188 c 0.199219,0 0.351562,0.152344 0.351562,0.332031 v 11.933594 c 0,0.171875 -0.152343,0.328125 -0.351562,0.328125 H 8.800781 c -0.167969,0 -0.332031,-0.15625 -0.332031,-0.328125"
     style="fill:#454a4f;fill-opacity:1;fill-rule:nonzero;stroke:none" />
  <path
     inkscape:connector-curvature="0"
     id="path24"
     d="m 51.402344,42.28125 v 8.570312 c 0,1.367188 0.707031,2.097657 1.976562,2.097657 0.527344,0 1.089844,-0.125 1.640625,-0.375 l 0.257813,-0.07813 c 0.148437,0 0.226562,0.101562 0.226562,0.304687 v 0.332031 c 0,0.554688 -0.984375,0.882813 -2.480468,0.882813 -1.996094,0 -3.160157,-1.164063 -3.160157,-3.1875 v -8.54687 h -1.464843 c -0.171876,0 -0.328126,-0.148438 -0.328126,-0.332031 v -0.398438 c 0,-0.179687 0.15625,-0.332031 0.328126,-0.332031 h 1.464843 v -3.285156 c 0,-0.175782 0.148438,-0.328125 0.328125,-0.328125 h 0.890625 c 0.167969,0 0.320313,0.152343 0.320313,0.328125 v 3.285156 h 3.769531 c 0.175781,0 0.332031,0.152344 0.332031,0.332031 v 0.398438 c 0,0.183593 -0.15625,0.332031 -0.332031,0.332031 z m 0,0"
     style="fill:#454a4f;fill-opacity:1;fill-rule:nonzero;stroke:none" />
  <path
     inkscape:connector-curvature="0"
     id="path26"
     d="m 59.066406,41.550781 v 8.089844 c 0,2.125 1.21875,3.308594 3.359375,3.308594 2.179688,0 3.3125,-0.601563 3.3125,-1.816407 v -9.582031 c 0,-0.179687 0.15625,-0.332031 0.328125,-0.332031 h 0.859375 c 0.210938,0 0.355469,0.152344 0.355469,0.332031 v 11.933594 c 0,0.171875 -0.144531,0.328125 -0.355469,0.328125 h -0.605469 c -0.226562,0 -0.324218,-0.101562 -0.324218,-0.28125 v -0.152344 l -0.226563,-0.222656 -0.152343,0.02344 -0.152344,0.05078 -0.179688,0.07813 c -1.566406,0.53125 -2.476562,0.703125 -3.515625,0.703125 -1.179687,0 -2.222656,-0.300781 -2.957031,-0.90625 -0.933594,-0.734375 -1.261719,-1.644531 -1.261719,-3.339844 v -8.214844 c 0,-0.179687 0.148438,-0.332031 0.328125,-0.332031 h 0.859375 c 0.199219,0 0.328125,0.152344 0.328125,0.332031"
     style="fill:#454a4f;fill-opacity:1;fill-rule:nonzero;stroke:none" />
  <path
     inkscape:connector-curvature="0"
     id="path28"
     d="m 72.898438,42.28125 v 8.570312 c 0,1.367188 0.710937,2.097657 1.972656,2.097657 0.527344,0 1.085937,-0.125 1.644531,-0.375 l 0.25,-0.07813 c 0.148437,0 0.226563,0.101562 0.226563,0.304687 v 0.332031 c 0,0.554688 -0.984376,0.882813 -2.472657,0.882813 -1.996093,0 -3.164062,-1.164063 -3.164062,-3.1875 v -8.54687 h -1.46875 c -0.179688,0 -0.320313,-0.148438 -0.320313,-0.332031 v -0.398438 c 0,-0.179687 0.140625,-0.332031 0.320313,-0.332031 h 1.46875 v -3.285156 c 0,-0.175782 0.148437,-0.328125 0.332031,-0.328125 h 0.878906 c 0.179688,0 0.332032,0.152343 0.332032,0.328125 v 3.285156 h 3.769531 c 0.175781,0 0.324219,0.152344 0.324219,0.332031 v 0.398438 c 0,0.183593 -0.148438,0.332031 -0.324219,0.332031 z m 0,0"
     style="fill:#454a4f;fill-opacity:1;fill-rule:nonzero;stroke:none" />
  <path
     inkscape:connector-curvature="0"
     id="path30"
     d="m 8.15625,37.382812 c 0,-0.597656 0.484375,-1.082031 1.082031,-1.082031 0.597657,0 1.082031,0.484375 1.082031,1.082031 0,0.597657 -0.484374,1.082032 -1.082031,1.082032 -0.597656,0 -1.082031,-0.484375 -1.082031,-1.082032"
     style="fill:#454a4f;fill-opacity:1;fill-rule:nonzero;stroke:none" />
  <path
     inkscape:connector-curvature="0"
     id="path32"
     d="m 43.941406,37.382812 c 0,-0.597656 0.484375,-1.082031 1.082032,-1.082031 0.597656,0 1.082031,0.484375 1.082031,1.082031 0,0.597657 -0.484375,1.082032 -1.082031,1.082032 -0.597657,0 -1.082032,-0.484375 -1.082032,-1.082032"
     style="fill:#454a4f;fill-opacity:1;fill-rule:nonzero;stroke:none" />
  <path
     inkscape:connector-curvature="0"
     id="path34"
     d="m 60.871094,27.582031 c -0.726563,-0.01563 -1.320313,-0.07422 -1.746094,-0.15625 -1.339844,-0.265625 -1.890625,-0.898437 -1.890625,-0.898437 0,0 -0.207031,-0.1875 -0.433594,-0.601563 -0.05859,-0.117187 -0.125,-0.269531 -0.183593,-0.429687 -0.175782,0.1875 -0.351563,0.375 -0.527344,0.550781 -0.402344,0.402344 -0.808594,0.777344 -1.214844,1.128906 -0.01563,0.01172 -0.03125,0.02344 -0.04687,0.03516 0.07813,0.09375 0.144531,0.199218 0.222656,0.289062 0.929688,1.078125 2.03125,1.988281 3.25,2.707031 0.761719,-0.492187 1.933594,-1.578125 2.691407,-2.625 -0.02734,0 -0.09375,0.0039 -0.121094,0"
     style="fill:#c7542e;fill-opacity:1;fill-rule:nonzero;stroke:none" />
  <path
     inkscape:connector-curvature="0"
     id="path36"
     d="m 58.160156,14.171875 c 0.05469,-0.128906 0.109375,-0.269531 0.164063,-0.394531 0.753906,-1.707032 1.503906,-2.746094 1.511719,-2.761719 C 59.71875,10.898438 58.808594,9.9375 57.265625,9.042969 c -1.195313,0.863281 -2.21875,1.917969 -3.039063,3.105469 -0.08984,0.132812 -0.167968,0.277343 -0.253906,0.414062 0.03906,0.0078 0.08203,0.01953 0.121094,0.02734 1.34375,0.382812 2.542969,0.851562 3.519531,1.308594 0.191407,0.09375 0.371094,0.183593 0.546875,0.273437"
     style="fill:#c7542e;fill-opacity:1;fill-rule:nonzero;stroke:none" />
  <path
     inkscape:connector-curvature="0"
     id="path38"
     d="M 77.449219,16.152344 C 75.691406,9.351562 68.65625,5.238281 61.734375,6.964844 c -1.664063,0.417968 -3.167969,1.132812 -4.46875,2.078125 0.789063,0.464843 1.53125,1.011719 2.203125,1.632812 -0.105469,0.160157 -0.105469,0.160157 0.0039,0 0.121094,0.109375 0.226563,0.242188 0.34375,0.355469 0.273438,-0.402344 0.523438,-0.734375 0.734375,-0.972656 0.90625,-1.007813 1.734375,-1.15625 1.734375,-1.15625 0,0 0.808594,-0.257813 2.085938,0.199218 1.28125,0.460938 3.933594,2.03125 6.359375,4.492188 2.4375,2.441406 3.960937,5.089844 4.398437,6.367188 0.4375,1.265624 0.15625,2.050781 0.15625,2.050781 0,0 -0.175781,0.816406 -1.226562,1.675781 -1.046875,0.863281 -3.75,2.335938 -7.128906,3.171875 -2.265626,0.578125 -4.410157,0.75 -5.972657,0.722656 -0.121093,0.15625 -0.222656,0.324219 -0.351562,0.472657 h 0.0039 c -0.671875,0.800781 -1.445313,1.527343 -2.308594,2.152343 1.964844,1.152344 4.246094,1.796875 6.609375,1.796875 1.058594,0 2.128906,-0.128906 3.203125,-0.398437 6.914063,-1.726563 11.097657,-8.648438 9.335938,-15.453125"
     style="fill:#f37014;fill-opacity:1;fill-rule:nonzero;stroke:none" />
  <path
     inkscape:connector-curvature="0"
     id="path40"
     d="m 54.09375,12.589844 c -0.03906,-0.01172 -0.08203,-0.01953 -0.121094,-0.02734 -1.800781,2.839844 -2.484375,6.359375 -1.574218,9.859375 0.46875,1.808594 1.316406,3.421875 2.429687,4.789063 0.01563,-0.01172 0.03125,-0.02344 0.04687,-0.03906 0.40625,-0.347656 0.8125,-0.722656 1.214844,-1.128906 C 56.265625,25.871094 56.441406,25.683594 56.617188,25.5 56.523438,25.257812 56.433594,24.984375 56.375,24.648438 56.140625,23.328125 56.195312,20.285156 57.152344,16.988281 57.4375,15.972656 57.789062,15.03125 58.160156,14.171875 57.984375,14.082031 57.804688,13.992188 57.613281,13.902344 56.636719,13.441406 55.4375,12.972656 54.09375,12.589844"
     style="fill:#f37014;fill-opacity:1;fill-rule:nonzero;stroke:none" />
  <path
     inkscape:connector-curvature="0"
     id="path42"
     d="m 57.234375,26.527344 c 0,0 0.550781,0.632812 1.890625,0.898437 0.425781,0.08203 1.023438,0.140625 1.746094,0.15625 0.02734,0 0.05859,0 0.08594,0 2.421875,-3.175781 3.320313,-7.402343 2.003907,-11.472656 -0.648438,-1.984375 -1.75,-3.691406 -3.144532,-5.078125 -0.01172,0.01563 -0.01953,0.02344 -0.02734,0.03906 -0.457031,0.699219 -0.980468,1.621094 -1.464843,2.710938 -0.05859,0.121094 -0.109375,0.261719 -0.164063,0.390625 0.691406,0.351563 1.242188,0.691406 1.597656,0.960937 1.070313,0.828126 1.28125,1.636719 1.28125,1.636719 0,0 0.308594,0.777344 -0.08594,2.0625 -0.386719,1.285157 -1.828125,3.980469 -4.179687,6.503907 -0.05469,0.05859 -0.105469,0.109374 -0.15625,0.164062 0.05859,0.15625 0.125,0.304688 0.183593,0.425781 0.226563,0.414063 0.433594,0.601563 0.433594,0.601563"
     style="fill:#a6a3a6;fill-opacity:1;fill-rule:nonzero;stroke:none" />
  <path
     inkscape:connector-curvature="0"
     id="path44"
     d="m 55.050781,27.5 c -0.07813,-0.08984 -0.144531,-0.195312 -0.222656,-0.289062 -1.714844,1.480468 -3.335937,2.457031 -4.253906,2.820312 -1.265625,0.5 -2.082031,0.273438 -2.082031,0.273438 0,0 -0.839844,-0.128907 -1.773438,-1.105469 -0.933594,-0.972657 -2.589844,-3.546875 -3.632812,-6.8125 -1.070313,-3.261719 -1.222657,-6.300781 -1.035157,-7.628907 0.191407,-1.332031 0.796875,-1.90625 0.796875,-1.90625 0,0 0.53125,-0.648437 1.859375,-0.960937 1.332031,-0.308594 4.417969,-0.433594 7.816407,0.3125 0.5,0.105469 0.984374,0.226563 1.449218,0.359375 0.08594,-0.136719 0.164063,-0.28125 0.253906,-0.414062 0.820313,-1.1875 1.84375,-2.242188 3.039063,-3.105469 -3.066406,-1.796875 -6.871094,-2.34375 -10.539063,-1.199219 -6.804687,2.128906 -10.566406,9.277344 -8.398437,15.964844 1.746094,5.414062 6.835937,8.867187 12.3125,8.867187 1.296875,0 2.617187,-0.191406 3.917969,-0.601562 1.382812,-0.429688 2.636718,-1.070313 3.742187,-1.867188 -1.21875,-0.71875 -2.320312,-1.628906 -3.25,-2.707031"
     style="fill:#a6a3a6;fill-opacity:1;fill-rule:nonzero;stroke:none" />
</svg>
