<svg xmlns="http://www.w3.org/2000/svg" display="none" version="1.1">

  <symbol id="nfcore" viewBox="0 0 55 55">
    <path fill="#00cc44" d="M43.4,23.3c0-1.4-0.2-2.7-0.5-4c-0.4-1.3-0.9-2.6-1.8-3.7c-1-1.3-2.2-2.1-3.7-2.7c-1-0.4-2-0.6-3.1-0.7 c-0.9-0.1-1.8-0.1-2.7-0.1c-1.1,0-2.1,0.1-3.2,0.3c0,0-0.1,0-0.1,0c0,0,0,0,0,0c-0.1,0-0.2,0-0.2,0c-0.1-0.8-0.2-1.7-0.1-2.5 c0-1,0.2-1.9,0.5-2.8c0.3-1,0.8-2,1.6-2.7c1-0.9,2.1-1.2,3.4-1c0.1,0,0.1,0,0.1,0.1c0.1,0.2,0.1,0.4,0.3,0.6 c0.4,0.6,0.9,0.8,1.5,0.6c0.6-0.2,1.1-0.5,1.6-0.8c0.4-0.3,0.7-0.5,1-0.9C38.2,2.4,38,2,37.4,1.8c-0.8-0.3-1.6-0.4-2.5-0.5 c0,0,0,0,0,0c-0.3,0-0.7,0-1,0c0,0,0,0,0,0c0,0,0,0,0,0l0,0c-0.5,0-1.1,0.1-1.6,0.2c-1.1,0.3-2.1,0.7-2.9,1.4 c-1,0.9-1.8,1.9-2.3,3.2c-0.7,1.7-1,3.4-1.1,5.2c0,0.5,0,0.9,0,1.4c-0.3,0-0.6,0-0.9,0c-0.6,0-1.2,0-1.8,0.1c-1.5,0.1-3,0.3-4.4,0.7 c-1.3,0.4-2.6,1-3.6,1.9c-0.8,0.7-1.4,1.6-1.9,2.5c-0.6,1.3-1,2.6-1.2,4c-0.2,1-0.2,2-0.3,3.1c0,0,0,0.1,0,0.1c0,0,0,0,0,0.1 c0.2-0.1,0.5-0.3,0.7-0.4c0.6-0.4,1.1-0.7,1.8-0.9c0.8-0.2,1.5-0.2,2.2,0.2c0.5,0.3,0.9,0.6,1.3,1c0.1,0.1,0.1,0.1,0.2,0 c0.4-0.3,0.8-0.7,1.2-1c0.4-0.4,0.8-0.8,1.3-1.2l0,0c0,0,0.1,0,0.1,0c0.5-0.2,1-0.2,1.5-0.1c1.2,0.3,2,1.1,2.5,2.1 c0.8,1.8,1.2,3.7,1.4,5.7c0,0.7,0.1,1.3,0,2c0,0.7-0.1,1.4-0.2,2.1c-0.1,1-0.3,2-0.6,2.9c-0.3,1.3-0.7,2.6-1.1,3.9 c-0.3,1-0.7,1.8-1.4,2.6c-0.2,0.2-0.3,0.4-0.5,0.6c-0.5,0.1-1,0.2-1.5,0.2c-0.4,0-0.9,0-1.3,0c-0.5,0-1.1-0.1-1.6-0.3 c-0.8-0.2-1.5-0.5-2.2-0.9c-0.6-0.4-1.2-0.8-1.7-1.2c-0.1-0.1-0.2-0.2-0.3-0.2c-0.1,0.8-0.2,1.6-0.2,2.4c0,0.6,0,1.1,0.1,1.7 c0,0.4,0.1,0.8,0.2,1.2c0.2,0.9,0.5,1.8,1,2.6c0.5,0.8,1.1,1.5,1.8,2c0.8,0.6,1.6,1,2.6,1.3c0.6,0.2,1.3,0.4,1.9,0.5 c0.5,0.1,1,0.1,1.4,0c0.7-0.1,1.3-0.5,1.8-1c0.3-0.3,0.6-0.6,0.9-0.9c0.4-0.4,0.9-0.6,1.5-0.6c0.5,0,0.9,0.2,1.3,0.4 c0.7,0.3,1.4,0.8,2.2,1.1c0.5,0.2,1,0.3,1.6,0.3c0.3,0,0.5,0,0.8-0.1c0.9-0.2,1.8-0.4,2.7-0.6c0.9-0.3,1.9-0.6,2.7-1.1 c0.6-0.4,1.2-0.8,1.8-1.2c0.4-0.4,0.8-0.9,1.1-1.4c0.3-0.4,0.5-0.8,0.6-1.2c0.3-0.7,0.4-1.5,0.5-2.3c0-0.6,0-1.2-0.1-1.8 c-0.1-0.5-0.1-1.1-0.2-1.6c-0.1-0.4-0.1-0.8-0.2-1.2c0-0.1,0-0.1-0.1,0c-0.3,0.2-0.6,0.5-0.8,0.7c-0.5,0.4-1,0.8-1.5,1.2 c-0.6,0.4-1.2,0.9-1.9,1.3c-0.5,0.3-1.1,0.6-1.7,0.8c0,0-0.1,0-0.1-0.1c-0.9-0.6-1.4-1.4-1.6-2.5c-0.1-0.7-0.2-1.5-0.3-2.2 c-0.2-1.3-0.4-2.6-0.6-3.9c-0.1-0.8-0.2-1.6-0.2-2.4c0-0.6,0-1.3,0-1.9c0.1-0.8,0.2-1.7,0.4-2.5c0.2-0.9,0.6-1.9,1-2.7 c0.2-0.4,0.4-0.9,0.7-1.3c0.3-0.5,0.7-0.9,1.2-1.2c1-0.7,2-1.2,3.2-1.2c0.2,0,0.4,0.2,0.6,0.2c1.1,0.5,2.1,1.3,3,2 c0.1,0.1,0.3,0.2,0.4,0.3c0,0,0,0,0.1,0c0-0.3,0-0.6,0-0.8c0,0,0,0,0,0C43.4,24.3,43.4,23.8,43.4,23.3 C43.4,23.3,43.4,23.3,43.4,23.3z"/>
  </symbol>

  <symbol id="github" viewBox="0 0 20 20">
    <path fill="#4078c0" d="M10 0C4.477 0 0 4.59 0 10.253c0 4.53 2.865 8.373 6.84 9.73.5.093.68-.223.68-.495 0-.243-.007-.888-.012-1.744-2.782.62-3.37-1.374-3.37-1.374-.453-1.185-1.11-1.5-1.11-1.5-.907-.636.07-.624.07-.624 1.003.073 1.53 1.057 1.53 1.057.893 1.567 2.342 1.114 2.912.852.09-.662.35-1.114.635-1.37-2.22-.26-4.555-1.14-4.555-5.068 0-1.12.39-2.035 1.03-2.75-.104-.26-.447-1.303.097-2.715 0 0 .84-.275 2.75 1.052.797-.228 1.653-.342 2.503-.346.85.004 1.705.118 2.504.346 1.91-1.327 2.747-1.052 2.747-1.052.55 1.412.21 2.455.1 2.714.65.716 1.03 1.632 1.03 2.75 0 3.94-2.34 4.807-4.56 5.06.36.317.68.943.68 1.9 0 1.37-.01 2.476-.01 2.812 0 .274.18.593.69.493 3.96-1.35 6.82-5.19 6.82-9.72C20 4.59 15.53 0 10 0"/>
  </symbol>

  <symbol id="link" viewBox="0 0 20 21">
    <path d="M10 1.658L7.73 4.04c1.316-.275 2.994-.068 3.865.364l.494-.518c1.06-1.123 3.15-1.106 4.21 0 1.05 1.105 1.03 3.333 0 4.42l-3.16 3.317c-1.04 1.088-3.16 1.105-4.21 0-.38-.398-.63-.898-.76-1.417l-2.25 2.366c.26.45.56.864.92 1.244 2.1 2.21 6.3 2.228 8.4.017l3.18-3.333c2.1-2.21 2.1-6.632 0-8.842-2.11-2.21-6.32-2.21-8.42 0zM8.405 16.596l-.494.518c-1.06 1.123-3.15 1.106-4.21 0-1.05-1.105-1.03-3.333 0-4.42l3.16-3.317c1.04-1.088 3.16-1.105 4.21 0 .38.398.63.898.76 1.417l2.26-2.366c-.26-.45-.56-.864-.92-1.244-2.1-2.21-6.3-2.228-8.4-.017L1.58 10.5c-2.106 2.21-2.106 6.632 0 8.842 2.104 2.21 6.315 2.21 8.42 0l2.27-2.383c-1.316.27-2.994.06-3.865-.37z"/>
  </symbol>

  <symbol id="nextflow" viewBox="0 0 500 500">
    <path d="M 512.00006,129.96004 V 34.254948 C 417.63025,54.706814 346.38745,97.830483 257.56354,183.14192 125.95979,29.303165 15.264113,20.571354 0,20.119959 v 97.261761 c 6.3763809,0.78734 86.848442,12.981 189.66383,136.71704 C 132.63214,307.1973 67.730461,347.63809 0,372.64868 v 101.45731 c 96.339806,-28.46665 180.09737,-79.59857 249.3567,-142.22718 67.66768,87.46756 168.70058,141.39097 262.64338,160.00123 V 391.58386 C 454.88222,377.05698 381.20357,342.29898 317.64552,260.98807 389.30267,181.8499 443.70096,145.94551 512.00006,129.96004 Z"/>
  </symbol>

  <symbol id="r" viewBox="0 0 724 561">
    <path d="M361.453,485.937 C162.329,485.937 0.906,377.828 0.906,244.469 C0.906,111.109 162.329,3.000 361.453,3.000 C560.578,3.000 722.000,111.109 722.000,244.469 C722.000,377.828 560.578,485.937 361.453,485.937 ZM416.641,97.406 C265.289,97.406 142.594,171.314 142.594,262.484 C142.594,353.654 265.289,427.562 416.641,427.562 C567.992,427.562 679.687,377.033 679.687,262.484 C679.687,147.971 567.992,97.406 416.641,97.406 Z" />
    <path d="M550.000,377.000 C550.000,377.000 571.822,383.585 584.500,390.000 C588.899,392.226 596.510,396.668 602.000,402.500 C607.378,408.212 610.000,414.000 610.000,414.000 L696.000,559.000 L557.000,559.062 L492.000,437.000 C492.000,437.000 478.690,414.131 470.500,407.500 C463.668,401.969 460.755,400.000 454.000,400.000 C449.298,400.000 420.974,400.000 420.974,400.000 L421.000,558.974 L298.000,559.026 L298.000,152.938 L545.000,152.938 C545.000,152.938 657.500,154.967 657.500,262.000 C657.500,369.033 550.000,377.000 550.000,377.000 ZM496.500,241.024 L422.037,240.976 L422.000,310.026 L496.500,310.002 C496.500,310.002 531.000,309.895 531.000,274.877 C531.000,239.155 496.500,241.024 496.500,241.024 Z" />
  </symbol>
  
  <symbol id="star" viewBox="0 0 20 20">
    <path d="M20 7h-7L10 .5 7 7H0l5.46 5.47-1.64 7 6.18-3.7 6.18 3.73-1.63-7zm-10 6.9l-3.76 2.27 1-4.28L3.5 8.5h4.61L10 4.6l1.9 3.9h4.6l-3.73 3.4 1 4.28z"/>
  </symbol>

  <symbol id="issue" viewBox="0 0 15 15">
    <path d="M7 2.3c3.14 0 5.7 2.56 5.7 5.7s-2.56 5.7-5.7 5.7A5.71 5.71 0 0 1 1.3 8c0-3.14 2.56-5.7 5.7-5.7zM7 1C3.14 1 0 4.14 0 8s3.14 7 7 7 7-3.14 7-7-3.14-7-7-7zm1 3H6v5h2V4zm0 6H6v2h2v-2z"/>
  </symbol>

  <symbol id="analysis" viewBox="0 0 47 47">
    <g>
      <g id="Layer_1_80_">
	<g>
	  <path d="M36.854,37.92H10.147c-1.18,0-2.136,0.956-2.136,2.136s0.956,2.137,2.136,2.137h26.705c1.181,0,2.137-0.957,2.137-2.137
		   S38.032,37.92,36.854,37.92z"/>
	  <path d="M7.478,21.896v5.341c0,0.885,0.718,1.603,1.602,1.603c0.885,0,1.603-0.718,1.603-1.603v-5.341
		   c0-0.885-0.718-1.602-1.603-1.602C8.195,20.295,7.478,21.012,7.478,21.896z"/>
	  <path d="M12.818,19.761v7.477c0,0.885,0.718,1.603,1.603,1.603c0.884,0,1.602-0.718,1.602-1.603v-7.477
		   c0-0.885-0.718-1.603-1.602-1.603C13.536,18.158,12.818,18.876,12.818,19.761z"/>
	  <path d="M18.159,17.624v9.613c0,0.885,0.718,1.603,1.603,1.603c0.884,0,1.602-0.718,1.602-1.603v-9.613
		   c0-0.885-0.718-1.603-1.602-1.603C18.877,16.021,18.159,16.739,18.159,17.624z"/>
	  <path d="M44.863,4.806H2.137C0.957,4.806,0,5.763,0,6.943v26.705c0,1.18,0.957,2.137,2.137,2.137H42.91
		   c-0.062-0.055-0.133-0.1-0.191-0.157l-2.957-2.959c-1.705,0.963-3.636,1.478-5.615,1.478c-2.698,0-5.252-0.93-7.306-2.633H4.272
		   V9.078h38.455V15.1c1.856,2.095,2.883,4.755,2.883,7.581c0,1.979-0.514,3.909-1.476,5.612l2.865,2.867V6.942
		   C47,5.763,46.043,4.806,44.863,4.806z"/>
	  <path d="M42.371,29.554c-0.213-0.214-0.499-0.301-0.777-0.271l-0.449-0.449c1.5-1.704,2.328-3.861,2.328-6.151
		   c0-2.49-0.969-4.832-2.729-6.593c-1.763-1.765-4.104-2.733-6.597-2.733c-2.489,0-4.83,0.969-6.592,2.733
		   c-1.764,1.761-2.734,4.103-2.734,6.593c0,2.49,0.972,4.833,2.734,6.594c1.762,1.763,4.103,2.731,6.592,2.731
		   c2.293,0,4.449-0.827,6.151-2.329l0.451,0.448c-0.03,0.28,0.056,0.563,0.271,0.779l3.213,3.213
		   c0.187,0.187,0.431,0.278,0.677,0.278c0.243,0,0.489-0.092,0.677-0.278c0.372-0.374,0.372-0.979,0-1.351L42.371,29.554z
		   M39.391,27.922c-1.4,1.401-3.263,2.175-5.244,2.175c-1.978,0-3.84-0.772-5.24-2.173c-1.399-1.399-2.172-3.262-2.172-5.242
		   c0-1.979,0.771-3.841,2.172-5.241c1.4-1.401,3.264-2.173,5.24-2.173c1.981,0,3.844,0.771,5.244,2.173
		   c1.398,1.4,2.17,3.262,2.17,5.241C41.561,24.662,40.789,26.522,39.391,27.922z"/>
	</g>
      </g>
    </g>
  </symbol>

  <symbol id="pipelines" viewBox="0 0 45 45">
    <g>
      <g id="_x31_86_50_">
	<g>
	  <path d="M13.16,18.613c0,0-0.063-0.694-0.094-1.042c0.164-0.094,0.321-0.196,0.468-0.31c0.261,0.15,0.781,0.451,0.781,0.451
		   l0.887-0.233l1.006-1.739l-0.233-0.887c0,0-0.67-0.389-1.005-0.581c-0.009-0.193-0.03-0.385-0.069-0.569
		   c0.266-0.229,0.796-0.682,0.796-0.682v-0.917l-1.309-1.526h-0.917c0,0-0.435,0.372-0.652,0.559
		   c-0.236-0.114-0.485-0.208-0.745-0.279c-0.021-0.258-0.063-0.775-0.063-0.775l-0.648-0.648L9.36,9.597l-0.648,0.648
		   c0,0,0.055,0.681,0.082,1.021c-0.196,0.111-0.381,0.237-0.554,0.378c-0.281-0.13-0.846-0.387-0.846-0.387l-0.887,0.232
		   l-0.839,1.828l-0.029,0.125l0.263,0.762c0,0,0.654,0.299,0.982,0.449c0.014,0.216,0.047,0.425,0.101,0.63
		   c-0.25,0.21-0.749,0.635-0.749,0.635v0.916l1.299,1.534c0,0,0.755,0.09,0.796,0.067c0.041-0.022,0.122-0.067,0.122-0.067
		   s0.475-0.402,0.712-0.604c0.2,0.09,0.409,0.165,0.626,0.224c0.024,0.27,0.074,0.809,0.074,0.809l0.648,0.648l2-0.183
		   L13.16,18.613z M10.815,16.461c-1.116,0-2.021-0.905-2.021-2.021c0-1.117,0.905-2.022,2.021-2.022
		   c1.118,0,2.023,0.905,2.023,2.022C12.838,15.555,11.933,16.461,10.815,16.461z"/>
	  <path d="M18.718,25.188c0,0-0.048-0.525-0.071-0.789c0.124-0.07,0.243-0.147,0.354-0.233c0.197,0.112,0.59,0.341,0.59,0.341
		   l0.671-0.176l0.761-1.315l-0.176-0.67c0,0-0.506-0.294-0.76-0.439c-0.006-0.146-0.022-0.291-0.052-0.43
		   c0.201-0.172,0.602-0.516,0.602-0.516v-0.693l-0.99-1.154h-0.694c0,0-0.329,0.281-0.493,0.422
		   c-0.178-0.086-0.367-0.157-0.563-0.211c-0.016-0.195-0.047-0.586-0.047-0.586l-0.49-0.49l-1.514,0.123l-0.49,0.49
		   c0,0,0.042,0.515,0.062,0.771c-0.148,0.084-0.289,0.18-0.419,0.286c-0.212-0.098-0.639-0.292-0.639-0.292l-0.671,0.176
		   l-0.634,1.382l-0.022,0.094l0.199,0.576c0,0,0.495,0.226,0.742,0.339c0.011,0.164,0.036,0.32,0.077,0.477
		   c-0.189,0.159-0.566,0.479-0.566,0.479v0.693l0.982,1.16c0,0,0.571,0.068,0.602,0.051c0.031-0.017,0.092-0.051,0.092-0.051
		   s0.359-0.305,0.538-0.456c0.151,0.067,0.309,0.125,0.474,0.169c0.019,0.204,0.056,0.611,0.056,0.611l0.49,0.49l1.512-0.139
		   L18.718,25.188z M16.945,23.561c-0.844,0-1.528-0.686-1.528-1.529c0-0.844,0.684-1.528,1.528-1.528
		   c0.845,0,1.53,0.685,1.53,1.528C18.475,22.875,17.79,23.561,16.945,23.561z"/>
	  <path d="M32.653,6.125c-6.418,0-12.835,0-19.253,0c-1.612,0-1.612,2.5,0,2.5c6.418,0,12.835,0,19.253,0
		   C34.265,8.625,34.265,6.125,32.653,6.125z"/>
	  <path d="M32.653,12.042c-6.418,0-2.836,0-9.254,0c-1.611,0-1.611,2.5,0,2.5c6.418,0,2.836,0,9.254,0
		   C34.265,14.542,34.265,12.042,32.653,12.042z"/>
	  <polygon points="7.198,3 36.253,3 36.253,18.867 39.253,18.867 39.253,0 4.198,0 4.198,9.784 7.198,9.784 			"/>
	  <path d="M33.97,35.793c-0.004-0.319-0.029-0.637-0.084-0.943c0.449-0.361,1.35-1.082,1.35-1.082l0.049-1.511l-2.076-2.586
		   l-1.514-0.049c0,0-0.736,0.592-1.104,0.887c-0.383-0.2-0.789-0.369-1.213-0.5c-0.021-0.427-0.064-1.282-0.064-1.282l-1.035-1.102
		   l-3.309,0.161l-1.104,1.034c0,0,0.055,1.125,0.08,1.687c-0.328,0.173-0.641,0.372-0.933,0.593
		   c-0.457-0.228-1.374-0.683-1.374-0.683l-1.475,0.337l-1.479,2.97l-0.055,0.203l0.392,1.271c0,0,1.063,0.526,1.595,0.791
		   c0.012,0.357,0.056,0.705,0.133,1.043c-0.423,0.334-1.269,1.009-1.269,1.009l-0.049,1.509l2.06,2.598c0,0,1.24,0.188,1.308,0.153
		   s0.204-0.104,0.204-0.104s0.805-0.638,1.207-0.957c0.324,0.16,0.664,0.295,1.02,0.402c0.025,0.446,0.078,1.338,0.078,1.338
		   l1.035,1.102l3.305-0.194l1.104-1.032c0,0-0.066-1.149-0.1-1.724c0.273-0.146,0.539-0.308,0.789-0.487
		   c0.42,0.262,1.264,0.786,1.264,0.786l1.475-0.338l1.752-2.813l-0.338-1.476C35.597,36.803,34.513,36.129,33.97,35.793z
		   M27.005,39.179c-1.84-0.059-3.285-1.599-3.225-3.438c0.059-1.844,1.6-3.286,3.439-3.228c1.842,0.06,3.285,1.599,3.227,3.442
		   C30.386,37.796,28.847,39.238,27.005,39.179z"/>
	  <path d="M40.116,28.74c0,0-1.166-0.725-1.75-1.086c-0.004-0.344-0.029-0.684-0.09-1.013c0.484-0.389,1.453-1.165,1.453-1.165
		   l0.053-1.625l-2.234-2.782l-1.627-0.053c0,0-0.793,0.635-1.188,0.955c-0.412-0.217-0.848-0.399-1.307-0.539
		   c-0.021-0.46-0.066-1.379-0.066-1.379l-1.111-1.187l-3.562,0.174l-1.186,1.112c0,0,0.059,1.209,0.086,1.813
		   c-0.354,0.187-0.689,0.399-1.002,0.64c-0.492-0.246-1.48-0.734-1.48-0.734l-1.584,0.363l-1.593,3.192l-0.06,0.22l0.423,1.366
		   c0,0,0.746,0.37,1.335,0.662l0.66-0.619l0.27-0.251l0.367-0.018l2.656-0.129c0.465-1.506,1.877-2.584,3.527-2.53
		   c1.982,0.063,3.535,1.719,3.471,3.7c-0.016,0.533-0.156,1.031-0.379,1.479l1.865,2.324l0.232,0.289l-0.012,0.37l-0.031,0.958
		   c0.387,0.24,0.758,0.471,0.758,0.471l1.586-0.363l1.883-3.025L40.116,28.74z"/>
	  <path d="M5.927,25.189c0.294,0,0.537-0.08,0.73-0.238c0.193-0.157,0.339-0.381,0.436-0.67c0.097-0.291,0.146-0.672,0.146-1.145
		   c0-0.398-0.031-0.716-0.09-0.949c-0.061-0.237-0.145-0.436-0.25-0.601c-0.108-0.163-0.242-0.289-0.404-0.375
		   c-0.163-0.086-0.352-0.13-0.568-0.13c-0.293,0-0.536,0.078-0.729,0.236c-0.193,0.157-0.339,0.38-0.438,0.67
		   c-0.096,0.292-0.146,0.673-0.146,1.149c0,0.756,0.132,1.301,0.396,1.637C5.233,25.05,5.538,25.189,5.927,25.189z M5.378,21.778
		   c0.135-0.192,0.317-0.289,0.544-0.289c0.23,0,0.422,0.109,0.578,0.326c0.154,0.218,0.232,0.658,0.232,1.32
		   c0,0.659-0.078,1.098-0.232,1.316c-0.155,0.221-0.346,0.33-0.572,0.33c-0.227,0-0.418-0.109-0.572-0.328
		   c-0.155-0.219-0.232-0.658-0.232-1.318C5.122,22.477,5.207,22.023,5.378,21.778z"/>
	  <path d="M8.843,21.619c-0.207,0.185-0.449,0.342-0.725,0.473v0.477c0.154-0.056,0.328-0.141,0.521-0.254
		   c0.193-0.113,0.348-0.228,0.467-0.34v3.147H9.6v-4.04H9.281C9.196,21.256,9.05,21.434,8.843,21.619z"/>
	  <path d="M6.993,27.587c-0.107-0.163-0.24-0.289-0.404-0.375c-0.163-0.086-0.352-0.13-0.568-0.13
		   c-0.292,0-0.536,0.078-0.729,0.236c-0.193,0.156-0.337,0.379-0.436,0.67c-0.097,0.289-0.147,0.673-0.147,1.147
		   c0,0.756,0.133,1.302,0.398,1.636c0.221,0.278,0.525,0.418,0.914,0.418c0.294,0,0.538-0.08,0.732-0.238
		   c0.191-0.158,0.337-0.383,0.435-0.672c0.097-0.289,0.146-0.67,0.146-1.144c0-0.397-0.03-0.716-0.09-0.95
		   C7.182,27.949,7.098,27.751,6.993,27.587z M6.593,30.453c-0.155,0.22-0.345,0.33-0.572,0.33s-0.417-0.11-0.572-0.329
		   c-0.155-0.218-0.23-0.658-0.23-1.318c0-0.659,0.083-1.112,0.253-1.358c0.135-0.191,0.317-0.289,0.544-0.289
		   c0.231,0,0.423,0.109,0.578,0.326c0.155,0.219,0.232,0.658,0.232,1.32C6.825,29.796,6.748,30.234,6.593,30.453z"/>
	  <path d="M9.695,31.121v-4.04H9.376c-0.085,0.174-0.232,0.353-0.438,0.538c-0.206,0.185-0.448,0.342-0.724,0.473v0.477
		   c0.153-0.056,0.327-0.141,0.52-0.254s0.349-0.228,0.467-0.34v3.147L9.695,31.121L9.695,31.121z"/>
	  <path d="M12.403,31.121v-4.04h-0.318c-0.085,0.174-0.232,0.353-0.438,0.538c-0.206,0.185-0.448,0.342-0.724,0.473v0.477
		   c0.152-0.056,0.327-0.141,0.52-0.254s0.35-0.228,0.467-0.34v3.147L12.403,31.121L12.403,31.121z"/>
	  <path d="M15.952,27.587c-0.107-0.163-0.24-0.289-0.404-0.375c-0.163-0.086-0.352-0.13-0.567-0.13
		   c-0.293,0-0.537,0.078-0.73,0.236c-0.193,0.156-0.337,0.379-0.436,0.67c-0.097,0.291-0.146,0.673-0.146,1.148
		   c0,0.756,0.132,1.301,0.397,1.637c0.221,0.277,0.526,0.416,0.915,0.416c0.293,0,0.537-0.08,0.73-0.238
		   c0.193-0.157,0.337-0.381,0.435-0.67c0.097-0.291,0.147-0.672,0.147-1.145c0-0.398-0.031-0.716-0.092-0.949
		   C16.142,27.949,16.059,27.751,15.952,27.587z M15.552,30.453c-0.155,0.22-0.345,0.33-0.571,0.33c-0.228,0-0.418-0.11-0.574-0.329
		   c-0.155-0.218-0.23-0.658-0.23-1.318c0-0.659,0.085-1.112,0.253-1.358c0.137-0.191,0.317-0.289,0.544-0.289
		   c0.231,0,0.423,0.109,0.578,0.326c0.155,0.219,0.232,0.658,0.232,1.32C15.785,29.796,15.708,30.234,15.552,30.453z"/>
	  <path d="M6.993,34.332c-0.107-0.164-0.24-0.289-0.404-0.376c-0.163-0.086-0.352-0.13-0.568-0.13
		   c-0.292,0-0.536,0.078-0.729,0.236c-0.193,0.156-0.337,0.381-0.436,0.67c-0.097,0.291-0.147,0.672-0.147,1.148
		   c0,0.757,0.133,1.302,0.398,1.636c0.221,0.278,0.525,0.419,0.914,0.419c0.294,0,0.538-0.08,0.732-0.238
		   c0.191-0.158,0.337-0.383,0.435-0.672c0.097-0.289,0.146-0.672,0.146-1.145c0-0.396-0.03-0.716-0.09-0.95
		   C7.182,34.695,7.098,34.496,6.993,34.332z M6.593,37.199c-0.155,0.219-0.345,0.328-0.572,0.328s-0.417-0.108-0.572-0.328
		   c-0.155-0.219-0.23-0.657-0.23-1.318c0-0.659,0.083-1.111,0.253-1.357c0.135-0.191,0.317-0.289,0.544-0.289
		   c0.231,0,0.423,0.109,0.578,0.326c0.155,0.219,0.232,0.658,0.232,1.32C6.825,36.54,6.748,36.979,6.593,37.199z"/>
	  <path d="M10.119,34.332c-0.108-0.164-0.242-0.289-0.404-0.376c-0.163-0.086-0.352-0.13-0.568-0.13
		   c-0.292,0-0.536,0.078-0.729,0.236c-0.193,0.156-0.339,0.381-0.438,0.67c-0.097,0.291-0.146,0.672-0.146,1.147
		   c0,0.757,0.132,1.302,0.396,1.636c0.222,0.278,0.526,0.418,0.915,0.418c0.294,0,0.538-0.078,0.73-0.238
		   c0.193-0.157,0.339-0.381,0.436-0.672c0.097-0.289,0.146-0.67,0.146-1.144c0-0.397-0.031-0.716-0.09-0.95
		   C10.308,34.695,10.224,34.496,10.119,34.332z M9.719,37.199c-0.155,0.219-0.345,0.328-0.572,0.328s-0.418-0.108-0.572-0.328
		   c-0.155-0.219-0.232-0.657-0.232-1.318c0-0.659,0.085-1.111,0.255-1.357c0.135-0.191,0.317-0.289,0.544-0.289
		   c0.231,0,0.423,0.109,0.578,0.326c0.154,0.219,0.232,0.658,0.232,1.32C9.951,36.54,9.873,36.979,9.719,37.199z"/>
	  <path d="M13.243,34.332c-0.106-0.164-0.24-0.289-0.402-0.376c-0.165-0.086-0.354-0.13-0.568-0.13
		   c-0.292,0-0.536,0.078-0.729,0.236c-0.194,0.156-0.339,0.381-0.438,0.67c-0.097,0.291-0.146,0.672-0.146,1.147
		   c0,0.757,0.132,1.302,0.396,1.636c0.222,0.278,0.526,0.418,0.915,0.418c0.293,0,0.538-0.078,0.73-0.238
		   c0.193-0.157,0.337-0.381,0.435-0.672c0.097-0.289,0.147-0.67,0.147-1.144c0-0.397-0.031-0.716-0.092-0.95
		   C13.434,34.695,13.35,34.496,13.243,34.332z M12.844,37.199c-0.154,0.219-0.346,0.328-0.571,0.328
		   c-0.228,0-0.418-0.108-0.573-0.328c-0.155-0.219-0.231-0.657-0.231-1.318c0-0.659,0.085-1.111,0.254-1.357
		   c0.136-0.191,0.318-0.289,0.544-0.289c0.23,0,0.423,0.109,0.578,0.326c0.155,0.219,0.233,0.658,0.233,1.32
		   C13.077,36.54,12.999,36.979,12.844,37.199z"/>
	  <path d="M15.948,37.865v-4.039H15.63c-0.086,0.174-0.233,0.353-0.44,0.537c-0.207,0.186-0.448,0.343-0.724,0.474v0.478
		   c0.154-0.058,0.327-0.143,0.52-0.256s0.35-0.228,0.467-0.34v3.148h0.495V37.865z"/>
	  <path d="M18.615,40.912c-0.207,0.185-0.449,0.342-0.725,0.473v0.477c0.154-0.057,0.328-0.141,0.521-0.254
		   c0.193-0.112,0.348-0.227,0.467-0.34v3.147h0.494v-4.041h-0.319C18.967,40.548,18.821,40.727,18.615,40.912z"/>
	  <path d="M6.993,41.076c-0.107-0.163-0.24-0.288-0.404-0.375c-0.163-0.088-0.352-0.131-0.568-0.131
		   c-0.292,0-0.536,0.078-0.729,0.235c-0.193,0.157-0.337,0.382-0.436,0.671c-0.097,0.291-0.147,0.674-0.147,1.149
		   c0,0.756,0.133,1.3,0.398,1.636c0.221,0.276,0.525,0.416,0.914,0.416c0.294,0,0.538-0.078,0.732-0.236
		   c0.191-0.158,0.337-0.384,0.435-0.674c0.097-0.289,0.146-0.671,0.146-1.142c0-0.399-0.03-0.718-0.09-0.951
		   C7.182,41.439,7.098,41.24,6.993,41.076z M6.593,43.943c-0.155,0.22-0.345,0.33-0.572,0.33s-0.417-0.11-0.572-0.33
		   c-0.155-0.219-0.23-0.656-0.23-1.316c0-0.661,0.083-1.113,0.253-1.359c0.135-0.191,0.317-0.287,0.544-0.287
		   c0.231,0,0.423,0.107,0.578,0.326c0.155,0.217,0.232,0.657,0.232,1.32C6.825,43.285,6.748,43.724,6.593,43.943z"/>
	  <path d="M8.938,41.107c-0.207,0.186-0.448,0.342-0.724,0.474v0.477c0.153-0.057,0.327-0.141,0.52-0.254
		   c0.193-0.112,0.349-0.228,0.467-0.34v3.147h0.494V40.57H9.376C9.291,40.745,9.144,40.923,8.938,41.107z"/>
	  <path d="M11.647,41.107c-0.207,0.186-0.448,0.342-0.724,0.474v0.477c0.152-0.057,0.327-0.141,0.52-0.254
		   c0.193-0.112,0.35-0.228,0.467-0.34v3.147h0.494V40.57h-0.318C12,40.745,11.853,40.923,11.647,41.107z"/>
	  <path d="M15.952,41.076c-0.107-0.163-0.24-0.288-0.404-0.375c-0.163-0.088-0.352-0.131-0.567-0.131
		   c-0.293,0-0.537,0.078-0.73,0.235s-0.337,0.382-0.436,0.671c-0.097,0.291-0.146,0.674-0.146,1.149c0,0.756,0.132,1.3,0.397,1.636
		   c0.221,0.276,0.526,0.416,0.915,0.416c0.293,0,0.537-0.078,0.73-0.236s0.337-0.384,0.435-0.674
		   c0.097-0.289,0.147-0.671,0.147-1.142c0-0.399-0.031-0.718-0.092-0.951C16.142,41.439,16.059,41.24,15.952,41.076z
		   M15.552,43.943c-0.155,0.22-0.345,0.33-0.571,0.33c-0.228,0-0.418-0.11-0.574-0.33c-0.155-0.219-0.23-0.656-0.23-1.316
		   c0-0.661,0.085-1.113,0.253-1.359c0.137-0.191,0.317-0.287,0.544-0.287c0.231,0,0.423,0.107,0.578,0.326
		   c0.155,0.217,0.232,0.657,0.232,1.32C15.785,43.285,15.708,43.724,15.552,43.943z"/>
	</g>
      </g>
    </g>
  </symbol>

  <symbol id="training" viewBox="0 0 32 32">  
    <g>
      <g>
	<path d="M26.939,19.915v-7.043l-10.747,1.712L5.441,12.871v6.857c-0.734,0.436-1.248,1.399-1.248,2.524
		 c0,1.126,0.514,2.089,1.248,2.524v5.63l10.751,1.711l10.747-1.711v-5.814c0.593-0.493,0.986-1.354,0.986-2.34
		 C27.925,21.268,27.532,20.408,26.939,19.915z M15.703,31.055l-9.287-1.479v-4.56c1.12-0.074,2.013-1.275,2.013-2.763
		 c0-1.485-0.893-2.688-2.013-2.761v-5.478l9.287,1.479V31.055z M25.964,15.977v3.522c-0.054-0.004-0.104-0.021-0.156-0.021
		 c-1.17,0-2.118,1.244-2.118,2.774c0,1.532,0.948,2.774,2.118,2.774c0.054,0,0.104-0.016,0.156-0.021v4.567l-9.287,1.479v-15.56
		 l9.287-1.48V15.977z"/>
	<path d="M8.293,8.794c-0.099,0.322-0.2,0.65-0.258,0.992c-0.068,0.427-0.106,0.865-0.106,1.312c0,0.422,0.042,0.834,0.104,1.238
		 l8.159,1.298l7.517-1.197c0.074-0.436,0.121-0.882,0.121-1.339c0-0.88-0.176-1.709-0.438-2.5l1.616-2.228l-2.895-1.017
		 l0.564-2.958l-3.531,1.011L17.519,0l-3.016,3.148l-2.337-2.71l-1.102,3.577l-3.75-1.229l1.413,3.16L5.999,6.715L8.293,8.794z"/>
      </g>
    </g>
  </symbol>

  <symbol id="singlecell" viewBox="0 0 485 485">
    <path d="m8 480.328125h472v-16h-32v-16h-16v16h-32v-16h-16v16h-32v-16h-16v16h-32v-16h-16v16h-32v-16h-16v16h-32v-16h-16v16h-32v-16h-16v16h-32v-16h-16v16h-32v-16h-16v16h-32v-32h16v-16h-16v-32h16v-16h-16v-32h16v-16h-16v-32h16v-16h-16v-32h16v-16h-16v-32h16v-16h-16v-32h16v-16h-16v-32h16v-16h-16v-32h16v-16h-16v-32h-16v472c0 4.417969 3.585938 8 8 8zm0 0"/>
    <path d="m445.65625 2.675781c-3.128906-3.128906-8.183594-3.128906-11.3125 0l-40 40 11.3125 11.308594 26.085938-26.085937c-.519532 13.351562-1.878907 25.625-3.972657 36.863281-11.210937 2-19.769531 11.785156-19.769531 23.566406 0 6.496094 2.617188 12.378906 6.816406 16.699219-1.296875 2.480468-2.648437 4.878906-4.105468 7.125-10.167969 15.792968-26.246094 30.21875-47.703126 42.976562-3.3125-1.726562-7.015624-2.800781-11.007812-2.800781-11.945312 0-21.800781 8.792969-23.617188 20.234375-4.703124 2.007812-9.757812 4.015625-15.566406 6.183594-16.113281 6-32.945312 11.222656-49.214844 16.273437-9.113281 2.824219-18.195312 5.742188-27.25 8.71875-4.238281-6.816406-11.742187-11.410156-20.351562-11.410156-13.230469 0-24 10.769531-24 24 0 1.386719.183594 2.722656.40625 4.042969-32.214844 14.640625-60.734375 35.40625-83.175781 60.574218-1.6875-.382812-3.429688-.617187-5.230469-.617187-13.230469 0-24 10.769531-24 24 0 4.417969 1.289062 8.515625 3.375 12.074219-16.78125 28.863281-25.550781 59.855468-25.855469 92.253906l16 .152344c.273438-28.695313 7.832031-56.230469 22.320313-82 2.558594.929687 5.28125 1.519531 8.160156 1.519531 13.230469 0 24-10.765625 24-24 0-5.535156-1.960938-10.566406-5.113281-14.628906 21-23 47.519531-41.960938 77.433593-55.351563 4.207032 3.679688 9.65625 5.980469 15.679688 5.980469 12.160156 0 22.121094-9.117187 23.679688-20.855469 9.519531-3.144531 19.074218-6.191406 28.65625-9.167968 16.480468-5.117188 33.519531-10.40625 50.0625-16.558594 4.785156-1.792969 9.058593-3.472656 13.089843-5.136719 4.199219 6.984375 11.785157 11.71875 20.511719 11.71875 13.230469 0 24-10.765625 24-24 0-3.261719-.664062-6.375-1.855469-9.214844 22.144531-13.625 38.984375-29.152343 50.007813-46.269531 1.792968-2.777344 3.449218-5.746094 5.03125-8.792969.9375.101563 1.855468.277344 2.816406.277344 13.230469 0 24-10.765625 24-24 0-9.03125-5.070312-16.8125-12.457031-20.910156 2.265625-12.238281 3.738281-25.535157 4.257812-39.976563l26.542969 26.542969 11.3125-11.308594zm-341.65625 309.652344c-4.40625 0-8-3.589844-8-8 0-4.40625 3.59375-8 8-8s8 3.59375 8 8c0 4.410156-3.59375 8-8 8zm112-88c-4.40625 0-8-3.589844-8-8 0-4.40625 3.59375-8 8-8s8 3.59375 8 8c0 4.410156-3.59375 8-8 8zm136-40c-4.40625 0-8-3.589844-8-8 0-4.40625 3.59375-8 8-8s8 3.59375 8 8c0 4.410156-3.59375 8-8 8zm80-88c-4.40625 0-8-3.589844-8-8 0-4.40625 3.59375-8 8-8s8 3.59375 8 8c0 4.410156-3.59375 8-8 8zm0 0"/>
    <path d="m128 360.328125c013.234375 10.769531 24 24 24s24-10.765625 24-24c0-13.230469-10.769531-24-24-24s-24 10.769531-24 24zm32 0c0 4.410156-3.59375 8-8 8s-8-3.589844-8-8c0-4.40625 3.59375-8 8-8s8 3.59375 8 8zm0 0"/>
    <path d="m96 248.328125c0-13.230469-10.769531-24-24-24s-24 10.769531-24 24c0 13.234375 10.769531 24 24 24s24-10.765625 24-24zm-24 8c-4.40625 0-8-3.589844-8-8 0-4.40625 3.59375-8 8-8s8 3.59375 8 8c0 4.410156-3.59375 8-88zm0 0"/>
    <path d="m200 280.328125c0 13.234375 10.769531 24 24 24s24-10.765625 24-24c0-13.230469-10.769531-24-24-24s-24 10.769531-24 24zm32 0c0 4.410156-3.59375 8-8 8s-8-3.589844-8-8c0-4.40625 3.59375-8 8-8s8 3.59375 8 8zm0 0"/>
    <path d="m304 248.328125c0 13.234375 10.769531 24 24 24s24-10.765625 24-24c0-13.230469-10.769531-24-24-24s-24 10.769531-24 24zm32 0c0 4.410156-3.59375 8-8 8s-8-3.589844-8-8c0-4.406253.59375-8 8-8s8 3.59375 8 8zm0 0"/>
    <path d="m232 144.328125c0-13.230469-10.769531-24-24-24s-24 10.769531-24 24c0 13.234375 10.769531 24 24 24s24-10.765625 24-24zm-32 0c0-4.40625 3.59375-8 8-8s8 3.59375 8 8c0 4.410156-3.59375 8-8 8s-8-3.589844-8-8zm0 0"/>
    <path d="m456 160.328125c-13.230469 0-24 10.769531-24 24 0 13.234375 10.769531 24 24 24s24-10.765625 24-24c0-13.230469-10.769531-24-24-24zm0 32c-4.40625 0-8-3.589844-8-8 0-4.40625 3.59375-8 8-8s8 3.59375 8 8c0 4.410156-3.59375 8-8 8zm0 0"/>
    <path d="m320 96.328125c0 13.234375 10.769531 24 24 24s24-10.765625 24-24c0-13.230469-10.769531-24-24-24s-24 10.769531-24 24zm32 0c0 4.410156-3.59375 8-8 8s-8-3.589844-8-8c0-4.40625 3.59375-8 8-8s8 3.59375 8 8zm0 0"/>
    <path d="m304 144.328125c0-13.230469-10.769531-24-24-24s-24 10.769531-24 24c0 13.234375 10.769531 24 24 24s24-10.765625 24-24zm-32 0c0-4.40625 3.59375-8 8-8s8 3.59375 8 8c0 4.410156-3.59375 8-8 8s-8-3.589844-8-8zm0 0"/>
    <path d="m392 24.328125c0-13.230469-10.769531-24-24-24s-24 10.769531-24 24c0 13.234375 10.769531 24 24 24s24-10.765625 24-24zm-32 0c0-4.40625 3.59375-8 8-8s8 3.59375 8 8c0 4.410156-3.59375 8-8 8s-8-3.589844-8-8zm0 0"/>
    <path d="m168 208.328125c0-13.230469-10.769531-24-24-24s-24 10.769531-24 24c0 13.234375 10.769531 24 24 24s24-10.765625 24-24zm-32 0c0-4.40625 3.59375-8 8-8s8 3.59375 8 8c0 4.410156-3.59375 8-8 8s-8-3.589844-8-8zm0 0"/>
  </symbol>
  
  <symbol id="default", viewBox="0 0 24 24">
    <path d="m6.75 18c-.192 0-.384-.073-.53-.22-.293-.293-.293-.768 0-1.061l2.719-2.719-2.72-2.72c-.293-.293-.293-.768 0-1.061s.768-.293 1.061 0l3.25 3.25c.293.293.293.768 0 1.061l-3.25 3.25c-.146.147-.338.22-.53.22z"/>
    <path d="m17.25 18h-4.5c-.414 0-.75-.336-.75-.75s.336-.75.75-.75h4.5c.414 0 .75.336.75.75s-.336.75-.75.75z"/>
    <path d="m21.25 23h-18.5c-1.517 0-2.75-1.233-2.75-2.75v-16.5c0-1.517 1.233-2.75 2.75-2.75h18.5c1.517 0 2.75 1.233 2.75 2.75v16.5c0 1.517-1.233 2.75-2.75 2.75zm-18.5-20.5c-.689 0-1.25.561-1.25 1.25v16.5c0 .689.561 1.25 1.25 1.25h18.5c.689 0 1.25-.561 1.25-1.25v-16.5c0-.689-.561-1.25-1.25-1.25z"/>
    <path d="m23.25 6h-22.5c-.414 0-.75-.336-.75-.75s.336-.75.75-.75h22.5c.414 0 .75.336.75.75s-.336.75-.75.75z"/>
  </symbol>
  
</svg>
